<svg xmlns="http://www.w3.org/2000/svg" viewBox="0 0 443.55 162.43"><defs><style>.cls-1{fill:#3667af;}.cls-2{fill:#243a6e;}.cls-3{fill:#26305f;}.cls-4{fill:#fdca10;}.cls-5{fill:#c59f14;}</style></defs><g id="Layer_2" data-name="Layer 2"><g id="Layer_1-2" data-name="Layer 1"><path class="cls-1" d="M128.32,65c-.88.65-1.24.28-1.25-.66,0-3.95-.61-7.88-.46-11.83a28.08,28.08,0,0,0,6.33-.61c.71-.13,1-.45,1-1.15-.06-2-.09-3.92-.12-5.88l-.25-5.12c5.33-2,10.8-3.54,16.21-5.28,7.61-2.45,15.24-4.82,22.84-7.3,1.33-.44,1.7-.26,1.64,1.17s-.39,2.63.18,3.9c-.67,3.37-.07,6.76-.28,10.18,2-3.35,3.86-6.73,5.58-10.17,1-1.89,2.2-3.64,2.72-5.74l0,0,.37-.32c.73-.21,1,.44,1.4.79q11.51,10.16,23,20.33c.3.26.63.49.94.73.34.41.61,1.18,1.29.58,1-.85,2.2-1.41,2.79-2.65l1.5-1c2.44-1,4.57-2.64,7.06-3.59.77-.29.21-.72-.05-1-1.2-1.47-2.51-2.86-3.59-4.42-.75-1.09-1.37-1-2.39-.45-1.73.84-3.3,2.08-5.28,2.39a76.66,76.66,0,0,1,6.32-7.5c5.55-6.4,11.17-12.74,16.76-19.11a4.34,4.34,0,0,1,1,.68,1.41,1.41,0,0,0,2.45,0c1.37-1.68,3-3.1,4.13-5a35.37,35.37,0,0,0,5.5-6.4l0,0,.39-.29c.56-.64.78,0,1,.31q7.91,11.76,15.81,23.52c.7,1-.11,1.13-.68,1.43l-20.56,11-2,1.12c2.73.68,5.3.49,7.76,1.1a37.08,37.08,0,0,1,15,7.46c.46.38.8,1,1.54,1l5.6,6.68c.42-2.5.78-4.64,1.13-6.79s.73-4.29,1-6.44,1-4.09.72-6.21c.52-.55,1.2-.28,1.8-.28q9.09,0,18.19,0a5.19,5.19,0,0,0,2.91-.76c2-1.2,4.05-2.21,6.07-3.33a3.17,3.17,0,0,1,1.65-.37c8.08,0,16.17,0,24.26,0,1.26,0,1.64.4,1.83,1.6,1.75,11.32,3.57,22.63,5.37,34,.15.9.3,1.8.45,2.66.38.17.61,0,.85-.18a34.15,34.15,0,0,1,18.48-6.06c1.54,0,1.77-.6,1.71-1.94-.11-2.18,0-4.37,0-6.56A49.1,49.1,0,0,0,362,52.9c1-.09,1.13-.5,1.12-1.31,0-2.7,0-5.4-.05-8.1q0-3.09,0-6.17c4.68.68,9.24,1.92,13.85,2.91,8.1,1.74,16.17,3.63,24.29,5.27,1.84.38,2.72,1.07,2.84,2.88a14.35,14.35,0,0,0,.42,2q1,5,2,10.07a108.28,108.28,0,0,0,3.11-12.73c2.51,0,4.81.92,7.19,1.47,8.94,2.08,17.86,4.26,26.78,6.41v3.11c-1.72,3.89-2.83,8-4.17,12q-13.86,41.55-27.65,83.11a3.5,3.5,0,0,1-.69,1.55c-8.1-2.54-16.2-5.09-24.32-7.58-1-.3-1.07-.87-1.06-1.68,0-2.42-.05-4.85,0-7.27,0-1-.29-1.42-1.34-1.56-6.89-.9-13.79-1.86-20.68-2.81-2.38-.34-2.53-.56-2.21-2.93,0-.23.13-.45.15-.68.35-3.21.68-6.42,1-9.72a4.32,4.32,0,0,0-1.95.72,34.27,34.27,0,0,1-14.25,2.94c-2.83,0-2.83,0-2.21,2.83a.91.91,0,0,0,.19.29c0,2.28.67,4.48.9,6.73.08.84.69,1.74-.14,2.54-.77-1-2-.71-3-.89-10.24-1.87-20.49-3.62-30.74-5.45-2.57-.46-2.47-.54-2.74-3.21-.43-4.31-1-8.6-1.54-13.38l-5.05,9.51a3.1,3.1,0,0,1-1.07-1.48c-2.23-4.1-4.45-8.2-6.7-12.29-.19-.35-.21-1-.86-.83-.46.15-.28.68-.32,1.07-.36,2.84-.75,5.69-1.12,8.53-.12.89-.54,1.34-1.51,1.18q-7.07-1.14-14.13-2.25l-16.88-2.59c.78-5,1.56-10,2.37-15.25-1.79.78-3.44,1.4-5,2.2a55.77,55.77,0,0,1-15.8,5.06c-3.87.7-3.89.57-3.71,4.51q0,11.46-.05,22.91c0,.65.28,1.38-.33,1.95-.24-.7-.93-.82-1.48-1.09q-12.93-6.42-25.88-12.8Q194.15,115,178.72,107.4c-1.08-.54-1.53-.55-1.47.85.1,2.07.05,4.15.07,6.22,0,5.66,0,11.31,0,17,0,.38.38,1-.4,1.1a5.3,5.3,0,0,0-.69,0c-8.72,1.28-17.44,2.53-26.14,3.9-1.26.2-1.54-.21-1.62-1.25-.12-1.78-.15-3.57-.43-5.33-.31-2-.06-4.16-.79-6.32a38.3,38.3,0,0,1-6.6,5.13c-7.46,4.49-15.46,6.59-24.16,5-10.2-1.84-17.23-7.78-21.5-17.11a35.27,35.27,0,0,1-2-15,48.57,48.57,0,0,1-5.89,5.09,1.42,1.42,0,0,0-.68,1.61c1,3.59,1.66,7.27,2.93,10.78a25.06,25.06,0,0,0,1.34,5.12c1.63,7.55,3.84,15,5.69,22.45.17.67.82,1.6-.57,1.84-.29.06-.67-.08-.78.36h0a4.12,4.12,0,0,0-2.34.46q-12.43,3.93-24.85,7.93c-1,.31-1.53.38-2-.75q-4.44-10.11-9-20.18-5.49-12.1-11-24.18-4.76-10.65-9.5-21.3c-.49-1.1-1.27-.92-2.15-.56-2,.85-4,1.67-6,2.51-1.31-2.26-1.31-2.25-3.89-1.15-1.26.55-2.54,1.06-3.8,1.63a.93.93,0,0,1-1.4-.45c-2.82-4.91-6-9.63-8.59-14.65,1.52-.81,3-1.64,4.57-2.43,2.7-1.38,2.8-1.43,1.29-4-2.18-3.64-4-7.47-6.53-10.93L5.92,54a127.94,127.94,0,0,1,18-10.6A102.4,102.4,0,0,1,47.64,35c7.62-1.56,15.3-2.76,23.13-2a70.79,70.79,0,0,1,10.4,1.49c11.29,2.91,20.23,9.07,25.69,19.63A29.25,29.25,0,0,1,109.45,73c-.06.34-.13.68-.18,1a6,6,0,0,0,0,.79c7.72-5.16,16-7.63,25.24-6.44a40.94,40.94,0,0,1,8,2.18c-.11-1.42-.19-2.66-.31-3.9-.19-2-.42-4-.62-6-.06-.6-.23-1-.94-.85-4.13,1-8.21,2.09-11.6,4.84l0,0C128.75,64.62,128.46,64.63,128.32,65ZM92,91c.24,0,.33-.16.34-.38h0a37.66,37.66,0,0,0,7.6-12.43c3.23-8.41,3.32-16.61-2.36-24.1a31.61,31.61,0,0,0-21-12.35A67.83,67.83,0,0,0,55,41.59c-13.38,2.1-25.65,7.17-37.23,14.07-1.06.63-1.3,1.16-.36,2q5.43,9.21,10.85,18.45c.41.72.79.79,1.5.43,2-1,4.07-1.91,6-3,1.09-.62,1.47-.42,1.95.68,3.48,7.89,7,15.76,10.56,23.63q10.91,24.32,21.82,48.64c.32.72.48,1.53,1.67,1.12,3.7-1.26,7.42-2.45,11.13-3.66.94-.27,1.87-.59,2.82-.78,1.27-.25,1.43-.82,1.09-2.05-1.39-5-2.61-10-3.93-15Q80,115.09,77,104c.51-.36,1-.74,1.53-1.08a58.54,58.54,0,0,0,12.3-10.61l.34-.38,0,0A1.31,1.31,0,0,0,92,91ZM365.17,63.25l3.7,1.73c.09-1.47,1-2.72.09-4.05a12.69,12.69,0,0,1-2.17-.49c-2.71-1.12-5.07-.51-7.34,1.39ZM249,79.16h0l-1.7.8a19.6,19.6,0,0,1-10.76,2.24L257.32,60c1-1.08,2-2.19,3.14-3.21.67-.63.6-1.06,0-1.68a35.12,35.12,0,0,0-3.78-3.54c-8.46-6.43-17.91-7.36-27.88-4.82a30.38,30.38,0,0,0-15.49,8.86h0l-.37.37c-10.61,10.53-9.94,31.27,4.69,39.85,6.84,4,14.21,5,21.89,3.74,9-1.47,17.34-4.68,24.37-10.73,1.06-1,2.12-1.92,3.21-2.85.61-.53.44-.87-.1-1.34-3.82-3.4-7.63-6.83-11.43-10.25-.49-.45-.84-.67-1.39,0-.9,1-1.88,2-2.83,3l-1.28,1A1.71,1.71,0,0,0,249,79.16Zm.3-53.77c1.28-.63,2.55-1.28,3.86-1.87.67-.3.87-.58.36-1.25q-3.9-5.23-7.75-10.51c-.41-.56-.71-.83-1.25-.1-.89,1.19-1.85,2.32-2.78,3.48s-2.11,2.44-3.14,3.68c-3.7,4.43-7.35,8.89-11.1,13.28-1.13,1.34.27,1.89.62,2.76.42,1,1.07.51,1.68.21Zm85,52.44-.34.37A28.54,28.54,0,0,0,326.52,92c-2.84,12.14,4.21,23.53,16.28,25.75,9.13,1.68,17-1.39,23.78-7.57a5.34,5.34,0,0,0,1.91-2l.1-.11c.57-.23.85-.76,1.2-1.2a29.47,29.47,0,0,0,6.64-15.65,20.46,20.46,0,0,0-12-21c-9.61-4.17-22.89-.8-30,7.64ZM108.94,83.68l-.36.37a29.49,29.49,0,0,0-8.85,20.41,21.22,21.22,0,0,0,17.43,21.83c9.69,1.85,17.91-1.51,25-8l.36-.35h0c.58-.55,1.21-1.06,1.74-1.65,4.64-5.3,7.61-11.33,8.08-18.45s-1.61-13.45-7.07-18.29c-5.18-4.59-11.39-6.08-18.17-5.19a29.38,29.38,0,0,0-18.18,9.34Zm192.82,21.47a11.68,11.68,0,0,0,1.5,3l1.6-4.1c1.74-4.49,3.47-9,5.27-13.46.08-.2-.14-1.56.93-.69q2.47,16.74,4.94,33.46c.09.59.33,1,.95,1l15.22,2.19c1.13.21,2.25.44,3.37.63.31,0,.67.15.84-.33.42-1.14-.9-4.49-2-5a27.47,27.47,0,0,1-15.19-25.76,35.48,35.48,0,0,1,8.13-20.7,2.84,2.84,0,0,0,.8-2.46c-1.81-11.54-3.55-23.09-5.3-34.64-.13-.85-.51-1.12-1.38-1.1-3.17,0-6.35,0-9.53,0-3.41,0-3.41,0-3.63,3.56-.5,2.64-1,5.27-1.51,7.91-1,5.76-2,11.52-3,17.28-.87.46-.63-.3-.69-.65q-2.1-11.29-4.16-22.58c-.12-.67-.07-1.38-1.12-1.37-5.83,0-11.67,0-17.5,0-.58,0-1,.1-1.08.8-.09.91-.22,1.82-.34,2.73-.08.33-.19.66-.25,1-1.79,10.67-3.56,21.34-5.39,32a2,2,0,0,0,.79,2.22c1.42,1.17,2.73,2.48,4.15,3.67.71.59.7,1,.05,1.61-2.22,2.18-4.38,4.43-6.58,6.64a3.1,3.1,0,0,0-1.08,1.71c-.77,4.71-1.55,9.42-2.38,14.12-.13.76.07,1,.8,1.14,4.66.76,9.31,1.56,14,2.35.82.51,1.8.27,2.67.58,1.1.37,1.64,0,1.82-1.24,1.13-7.71,2.28-15.41,3.57-23.1.18-1.07-.23-2.46,1-3.26Q296.89,94.75,301.76,105.15ZM166.81,126.22c.8-.08,1.6-.22,2.4-.24s1.24-.41,1.24-1.37c-.09-9.85-.14-19.7-.2-29.55.75-.32,1.26.28,1.8.55q15.67,7.78,31.33,15.62c7.56,3.77,15.14,7.49,22.71,11.23.8.45,1.61.87,2.39,1.34,1.11.67,1.45.4,1.43-.9-.07-4.21,0-8.42,0-12.63,0-2.67,0-2.59-2.72-3-10.55-1.81-19-6.86-24.58-16.17a3.59,3.59,0,0,0-2-1.54q-10.05-3.93-20.07-7.94c-.6-.24-1.42-.23-1.69-1q10.47-11,21-22.07c1-1,2-2.06,3-3,.52-.49.6-.84,0-1.38q-8.26-7.82-16.49-15.69c-.57-.55-.87-.52-1.3.15-.8,1.25-1.69,2.45-2.54,3.67L167.86,62.84c-.46-.14-.36-.53-.38-.85q-.69-11.12-1.35-22.23c-.12-2-.07-2-2-1.4l-19.5,5.81c-3.76,1.12-3.77,1.11-3.22,5a2.15,2.15,0,0,0,.13.32v2.34l6.92-1.75c.72,8.35,1.44,16.6,2.11,24.86a3.13,3.13,0,0,0,.92,2.12,24.06,24.06,0,0,1,4.68,6.8c4.66,10.21,3.48,20.15-1.48,29.89a3.18,3.18,0,0,0-.66,1.74q.48,5.76.94,11.53c.05.6.2.94,1,.82C159.51,127.28,163.16,126.76,166.81,126.22ZM391.17,91.64q.39,17.82.77,35.64c.1,4.49.23,9,.32,13.49,0,.71,0,1.31.91,1.56,3.5,1,7,2,10.46,3,2.78,1.09,2.79,1.09,3.36-.63Q420.66,103.35,434.37,62c.44-1.31,0-1.56-1.06-1.78-5-1.06-9.9-2.17-14.86-3.22-4.16-.88-4.16-.86-4.8,3.46-1,3.84-1.94,7.68-2.87,11.53q-2.55,10.64-5.06,21.3a3.24,3.24,0,0,1-.67-1.89Q401,72.26,397,53.1a1.83,1.83,0,0,0-1.66-1.62c-7.06-1.35-14.11-2.79-21.16-4.17-4.17-.82-4.18-.8-4.13,3.5a9.17,9.17,0,0,1-.16,1c-.38,1.44.08,2.22,1.65,2.43,1.07.14,2.11.57,3.17.82.67.15.92.42.84,1.17-.41,3.73-.68,7.47-1.14,11.18a2.63,2.63,0,0,0,.85,2.42c6.32,6.55,8.57,14.47,7.43,23.36s-5.36,16.07-11.83,22.08c-.53.5-1.1.9-1.17,1.8-.25,3.22-.61,6.43-.94,9.64-.06.62-.07,1.11.77,1.23,3.88.55,7.75,1.14,11.63,1.73,2.87.83,2.93.83,3.33-1.42,1.56-8.81,3-17.63,4.67-26.43C389.77,98.44,390.07,95,391.17,91.64Zm-192.77-21-7.06,7.75,7.51,2.87A42.08,42.08,0,0,1,198.4,70.69Zm69.45-9.63c-2.07,2.19-4.16,4.37-6.23,6.58-.3.32-.67.75-.12,1.16,1.63,1.24,2.88,2.93,4.8,4.07.61-3.76,1.2-7.36,1.78-11A.72.72,0,0,0,267.85,61.06Z"/><path class="cls-2" d="M259.46,115.16l16.88,2.59q7.07,1.11,14.13,2.25c1,.16,1.39-.29,1.51-1.18.37-2.84.76-5.69,1.12-8.53,0-.39-.14-.92.32-1.07.65-.22.67.48.86.83,2.25,4.09,4.47,8.19,6.7,12.29a3.1,3.1,0,0,0,1.07,1.48l5.05-9.51c.56,4.78,1.11,9.07,1.54,13.38.27,2.67.17,2.75,2.74,3.21,10.25,1.83,20.5,3.58,30.74,5.45,1,.18,2.24-.15,3,.89a15.85,15.85,0,0,0-1.8,1c-3.21,2.38-6.58,2.69-10.53,1.88-9.83-2-19.75-3.6-29.64-5.31-1.24-.22-1.81-.64-1.9-2-.16-2.57-.61-5.14-1-7.89l-3.57,1.94c-2.25,1.24-2.25,1.24-3.52-1.08-.71-1.32-1.47-2.61-2.13-4-.37-.75-.77-1.12-1.53-.51-3.5,2.8-7.32,2.69-11.53,1.88-8.1-1.55-16.29-2.65-24.43-4-.5-.08-1.19.11-1.51-.55C254.69,117.79,257,116.27,259.46,115.16Z"/><path class="cls-3" d="M45.82,112.05q5.51,12.09,11,24.18,4.56,10.07,9,20.18c.5,1.13,1.07,1.06,2,.75q12.4-4,24.85-7.93a4.12,4.12,0,0,1,2.34-.46,23.52,23.52,0,0,1-7.53,4.7c-9.09,2.94-18.19,5.82-27.26,8.81-1.24.41-1.56,0-2-1Q49,140.07,39.59,118.85c-.53-1.2-1-2.43-1.51-3.64Z"/><path class="cls-3" d="M90.71,124.13A25.06,25.06,0,0,1,89.37,119c1.85-.9,3.46-2.35,5.65-2.44,4.27,9.33,11.3,15.27,21.5,17.11,8.7,1.57,16.7-.53,24.16-5a38.3,38.3,0,0,0,6.6-5.13c.73,2.16.48,4.28.79,6.32.28,1.76.31,3.55.43,5.33.08,1,.36,1.45,1.62,1.25,8.7-1.37,17.42-2.62,26.14-3.9a5.3,5.3,0,0,1,.69,0c-2.16,1.17-4.3,2.4-6.5,3.5-1.94,1-4.15.89-6.24,1.22-7,1.1-13.91,2.08-20.87,3.12-2.19.32-2.21.34-2.42-1.94-.27-2.86-.5-5.73-.76-8.69a4.17,4.17,0,0,0-1.75,1.14c-6.14,4.9-13,8.17-21,8.45C105.48,139.75,96.65,134.41,90.71,124.13Z"/><path class="cls-2" d="M360.64,121.91a4.32,4.32,0,0,1,1.95-.72c-.35,3.3-.68,6.51-1,9.72,0,.23-.12.45-.15.68-.32,2.37-.17,2.59,2.21,2.93,6.89.95,13.79,1.91,20.68,2.81,1.05.14,1.36.58,1.34,1.56,0,2.42,0,4.85,0,7.27,0,.81.1,1.38,1.06,1.68,8.12,2.49,16.22,5,24.32,7.58a77.65,77.65,0,0,1-6.92,3.84c-.55.32-1,.07-1.47-.08-7.69-2.44-15.36-4.9-23.06-7.3a1.58,1.58,0,0,1-1.28-1.82c0-2.37-.17-4.73-.18-7.09,0-1-.2-1.48-1.36-1.63-7-.94-13.93-2-20.9-3-1.55-.21-2.3-.4-2-2.34.61-3.57.82-7.21,1.19-10.82,1.17-.58,2.37-1.11,3.49-1.76C359.32,123,360.41,123,360.64,121.91Z"/><path class="cls-2" d="M177.32,114.47c0-2.07,0-4.15-.07-6.22-.06-1.4.39-1.39,1.47-.85q15.41,7.65,30.85,15.25,12.94,6.39,25.88,12.8c.55.27,1.24.39,1.48,1.09-1.87,1-3.77,2-5.6,3.07a2.64,2.64,0,0,1-2.86.07q-24.76-12.3-49.57-24.53C178.39,114.89,177.85,114.7,177.32,114.47Z"/><path class="cls-2" d="M45.82,112.05l-7.74,3.16L28.15,92.7c2-.84,4-1.66,6-2.51.88-.36,1.66-.54,2.15.56Q41.06,101.4,45.82,112.05Z"/><path class="cls-3" d="M259.46,115.16c-2.48,1.11-4.77,2.63-7.38,3.49.64-4.31,1.29-8.61,2-13.25-5.42,3.1-10.79,5.52-16.76,6.28-.18-3.94-.16-3.81,3.71-4.51a55.77,55.77,0,0,0,15.8-5.06c1.57-.8,3.22-1.42,5-2.2C261,105.11,260.24,110.13,259.46,115.16Z"/><path class="cls-2" d="M9.8,60.76c2.49,3.46,4.35,7.29,6.53,10.93,1.51,2.53,1.41,2.58-1.29,4-1.53.79-3,1.62-4.57,2.43-2.65-4.29-5.31-8.56-7.7-13,.55-.8,1.54-.9,2.28-1.41C6.59,62.63,8.47,62.15,9.8,60.76Z"/><path class="cls-2" d="M272.23,34.5c.25,2.12-.45,4.14-.72,6.21s-.67,4.29-1,6.44-.71,4.29-1.13,6.79l-5.6-6.68L265,39.32a1.78,1.78,0,0,1,1-1.51C268.09,36.75,270.15,35.61,272.23,34.5Z"/><path class="cls-3" d="M129.05,64.67c3.39-2.75,7.47-3.84,11.6-4.84.71-.18.88.25.94.85.2,2,.43,4,.62,6,.12,1.24.2,2.48.31,3.9a40.94,40.94,0,0,0-8-2.18c-.07-.8-.14-1.59-.22-2.38-.25-2.33-.25-2.3-2.66-1.77C130.81,64.42,130,64.92,129.05,64.67Z"/><path class="cls-2" d="M363,43.49c0,2.7,0,5.4.05,8.1,0,.81-.16,1.22-1.12,1.31a49.1,49.1,0,0,1-6.18.31c-.17-3.12-.3-6.24-.18-9.37A36.23,36.23,0,0,0,363,43.49Z"/><path class="cls-3" d="M209.43,37.89c2-.31,3.55-1.55,5.28-2.39,1-.5,1.64-.64,2.39.45,1.08,1.56,2.39,2.95,3.59,4.42.26.31.82.74.05,1-2.49,1-4.62,2.57-7.06,3.59-1.45-1.77-2.92-3.53-4.35-5.32-.31-.38-1.09-.71-.35-1.39.25,0,.44-.08.48-.36Z"/><path class="cls-3" d="M9.8,60.76c-1.33,1.39-3.21,1.87-4.75,2.91-.74.51-1.73.61-2.28,1.41,0,0-.12,0-.14-.1C1.68,63.42,0,61.86,0,60.29s2.23-2.67,3.45-4c.77-.84,1.64-1.57,2.47-2.34Q7.86,57.36,9.8,60.76Z"/><path class="cls-3" d="M182.42,26.5c-.52,2.1-1.77,3.85-2.72,5.74-1.72,3.44-3.55,6.82-5.58,10.17.21-3.42-.39-6.81.28-10.18a5.4,5.4,0,0,1,3.31-3.43C179.32,28.13,180.67,26.91,182.42,26.5Z"/><path class="cls-2" d="M133.78,44.86c0,2,.06,3.92.12,5.88,0,.7-.25,1-1,1.15a28.08,28.08,0,0,1-6.33.61,47,47,0,0,1-.33-6.92A72.63,72.63,0,0,0,133.78,44.86Z"/><path class="cls-3" d="M363,43.49a36.23,36.23,0,0,1-7.43.35c-.44-1.83,0-3.08,2-3.81s3.52-2,5.46-2.71Q363,40.39,363,43.49Z"/><path class="cls-3" d="M360.64,121.91c-.23,1.12-1.32,1.13-2.06,1.56-1.12.65-2.32,1.18-3.49,1.76A33.16,33.16,0,0,1,344.37,128a.91.91,0,0,1-.19-.29c-.62-2.86-.62-2.86,2.21-2.83A34.27,34.27,0,0,0,360.64,121.91Z"/><path class="cls-3" d="M409.58,47.75a108.28,108.28,0,0,1-3.11,12.73q-1-5-2-10.07Z"/><path class="cls-3" d="M133.78,44.86a72.63,72.63,0,0,1-7.5.72c-.48-1.37,0-2.19,1.32-2.79,2-.91,4-2,5.93-3C133.61,41.45,133.69,43.16,133.78,44.86Z"/><path class="cls-2" d="M240.05,7c-1.09,1.9-2.76,3.32-4.13,5a1.41,1.41,0,0,1-2.45,0,4.34,4.34,0,0,0-1-.68c1.85-2.24,3.69-4.5,5.76-6.56C238.86,5.47,239.45,6.21,240.05,7Z"/><path class="cls-3" d="M422.94,149.72c.27-.76.58-1.55.82-2.36.13-.44.31-.77.81-.67s.33.54.31.85c-.08,1.2.26,2.45-.25,3.82-.78-.82-.27-1.69-.53-2.41-.08,0-.22,0-.24.05-.43.7-.28,2.08-1.13,2.06s-.54-1.57-1.27-2.17c-.43.7.27,1.67-.61,2.41-.48-1.08-.11-2.11-.27-3.08-.06-.37.36-1.2-.65-.94-.58.15-1.47-.17-1.34,1a30.35,30.35,0,0,1,0,3c-1.11-.55-.67-1.34-.69-1.92-.05-1.08.29-2.28-1.53-2.45,1.49-.4,2.83-.05,4.14-.14C423,146.65,421.52,149.14,422.94,149.72Z"/><path class="cls-3" d="M240.05,7c-.6-.74-1.19-1.48-1.78-2.23.88-1.59,2.65-1.88,4-2.69A8.89,8.89,0,0,1,245.55.55,35.37,35.37,0,0,1,240.05,7Z"/><path class="cls-2" d="M212.18,46c-.59,1.24-1.83,1.8-2.79,2.65-.68.6-.95-.17-1.29-.58Z"/><path class="cls-3" d="M128.32,65c.14-.36.43-.37.75-.34C129,65.13,128.59,64.92,128.32,65Z"/><path class="cls-3" d="M95.05,148.78c.11-.44.49-.3.78-.36C95.66,148.73,95.35,148.74,95.05,148.78Z"/><path class="cls-3" d="M182.77,26.21l-.37.32C182.32,26.19,182.57,26.23,182.77,26.21Z"/><path class="cls-1" d="M209.46,37.92c0,.28-.23.36-.48.36C209.06,38.06,209.17,37.87,209.46,37.92Z"/><path class="cls-3" d="M245.91.28l-.39.29C245.49.27,245.69.27,245.91.28Z"/><path class="cls-4" d="M82.91,144c-3.71,1.21-7.43,2.4-11.13,3.66-1.19.41-1.35-.4-1.67-1.12q-10.9-24.33-21.82-48.64C44.76,90,41.21,82.13,37.73,74.24c-.48-1.1-.86-1.3-1.95-.68-2,1.1-4,2-6,3-.71.36-1.09.29-1.5-.43q-5.4-9.24-10.85-18.45c.24-.62.84-.75,1.34-1,11.33-6,23.12-10.54,36-11.83a67.5,67.5,0,0,1,20.94,1,31.44,31.44,0,0,1,14.88,8c5.19,4.81,8.16,10.8,7.94,18A33.93,33.93,0,0,1,93.66,87.7c-.52.93-1.43,1.7-1.38,2.9h0L92,91v0a1,1,0,0,0-.75,1l0,0-.34.38a58.54,58.54,0,0,1-12.3,10.61c-.52.34-1,.72-1.53,1.08-.86.57-1.69,1.19-2.59,1.68a1.74,1.74,0,0,0-.93,2.37q3.48,12.69,6.79,25.41C81.2,137,82.43,140.37,82.91,144Zm-8.3-49.29c2.08-1.55,4.27-3,6.21-4.68,2.71-2.41,5.06-5.11,6.08-8.66,2.21-7.65-.18-14.74-8.38-16.94-4.39-1.18-8.56-.21-12.6,1.6-.42.16-.58-.56-1-.3a4.76,4.76,0,0,0-1.78,4.8l7.18,23.59c1.08,3.54,1.53,3.64,4.18.89A.92.92,0,0,0,74.61,94.68Z"/><path class="cls-4" d="M403.63,145.33c-3.49-1-7-2-10.46-3-.94-.25-.89-.85-.91-1.56-.09-4.5-.22-9-.32-13.49q-.39-17.82-.77-35.64c0-.31.07-1.12-.37-.71-1.24,1.14-3,2-3.37,3.79-1.15,5.9-2.12,11.83-3.18,17.75-1,5.74-2.07,11.48-3.11,17.23-3.88-.59-7.75-1.18-11.63-1.73-.84-.12-.83-.61-.77-1.23.33-3.21.69-6.42.94-9.64.07-.9.64-1.3,1.17-1.8,6.47-6,10.69-13.27,11.83-22.08s-1.11-16.81-7.43-23.36a2.63,2.63,0,0,1-.85-2.42c.46-3.71.73-7.45,1.14-11.18.08-.75-.17-1-.84-1.17-1.06-.25-2.1-.68-3.17-.82-1.57-.21-2-1-1.65-2.43a9.17,9.17,0,0,0,.16-1l21.76,4.27a1.7,1.7,0,0,1,1.58,1.7c.14,1.25.5,2.47.76,3.7C396.4,71.24,398.64,82,401,92.75c.3,1.41.07,3.57,1.27,4,.88.31,2-1.76,3.06-2.72a2.92,2.92,0,0,0,.43-.71q2.52-10.65,5.06-21.3c.93-3.85,1.91-7.69,2.87-11.54,5.63.86,11.11,2.42,16.68,3.53,1,.2.58.94.39,1.52-1.22,3.77-2.44,7.55-3.69,11.32Q415.9,110.42,404.75,144C404.55,144.59,404.44,145.25,403.63,145.33Z"/><path class="cls-4" d="M167.86,62.84l14.69-20.67c1.81.83,3,2.43,4.43,3.7,3.78,3.36,7.42,6.86,11.08,10.34.69.66,1.63,1.15,1.76,2.26l-21,22.07c-.72.82-1.41,1.66-2.16,2.44-1.37,1.43-1.4,1.44.37,2.14q9.85,4,19.73,7.87A4.19,4.19,0,0,1,199,94.77a31.36,31.36,0,0,0,3.62,5A35.36,35.36,0,0,0,225,111c.89.1,1.19.4,1.18,1.27,0,3.39,0,6.79-.07,10.19-7.57-3.74-15.15-7.46-22.71-11.23q-15.67-7.8-31.33-15.62c-.54-.27-1.05-.87-1.8-.55-2.59,1.79-3.64,4.07-3.52,7.39.28,7.92.08,15.85.08,23.77-3.65.54-7.3,1.06-10.94,1.63-.75.12-.9-.22-1-.82q-.46-5.76-.94-11.53a3.18,3.18,0,0,1,.66-1.74c5-9.74,6.14-19.68,1.48-29.89a24.06,24.06,0,0,0-4.68-6.8,3.13,3.13,0,0,1-.92-2.12c-.67-8.26-1.39-16.51-2.11-24.86l-6.92,1.75V49.5c.24-.78-.35-1.81,1.06-2.21,6.2-1.78,12.36-3.65,18.54-5.52.8-.24,1.12-.27,1.31.79.5,2.91.27,5.85.55,8.77.48,5,.55,10.11.79,15.16,0,.4,0,.82.54,1.09Z"/><path class="cls-4" d="M303.79,66c1-5.76,2-11.52,3-17.28.47-2.64,1-5.27,1.52-7.91,3.17,0,6.34,0,9.52-.07.83,0,1.2.22,1.32,1.13.37,2.84.89,5.66,1.33,8.49,1.25,8,2.56,15.94,3.69,23.94.22,1.55.95,3.08-.52,4.82a33,33,0,0,0-7.95,18.94c-.91,11.6,4.48,22.15,15.24,27.53.48.24,1.15.33,1.26,1L317,124.44c-.62-.09-.86-.46-.95-1q-2.46-16.73-4.94-33.46c0-.58.05-1.47-.79-.69-1.46,1.34-3,2.61-3.72,4.65-1.17,3.36-2.53,6.66-3.85,10-.19.47-.13,1.22-.94,1.29Q296.9,94.76,292,84.37c-.07-.48-.18-.88-.71-.32l-2.86,3a2.15,2.15,0,0,0-.6,1.2c-1.14,7.33-2.34,14.66-3.42,22-.16,1.09-.67,1.16-1.46,1.16-4.66-.79-9.31-1.59-14-2.35-.73-.12-.93-.38-.8-1.14.83-4.7,1.61-9.41,2.38-14.12a3.1,3.1,0,0,1,1.08-1.71c2.2-2.21,4.36-4.46,6.58-6.64.65-.64.66-1-.05-1.61-1.42-1.19-2.73-2.5-4.15-3.67a2,2,0,0,1-.79-2.22c1.83-10.66,3.6-21.33,5.39-32,.06-.34.17-.67.25-1,4.91,0,9.82,0,14.73,0,1.09,0,1.52.36,1.7,1.4.59,3.44,1.26,6.87,1.89,10.31L299.65,70c.06.36.16,1.11.58.68C301.58,69.23,303.68,68.35,303.79,66Z"/><path class="cls-4" d="M250.07,78.4l1.28-1,4.56,4.19,8,7.29c-7,6-15.34,9.26-24.37,10.73-7.68,1.24-15.05.27-21.89-3.74C203,87.27,202.33,66.53,212.94,56l.37-.37h0a2.35,2.35,0,0,0,1.4-.61,36,36,0,0,1,18.35-5.92,28.74,28.74,0,0,1,20.43,6.45c1.5,1.21,3.31,2.34,3.83,4.47L236.56,82.2a33.31,33.31,0,0,0-3.37,3.7c4.49.64,12.24-2.3,15.32-5.7.27-.3.57-.58.51-1h0A1,1,0,0,0,250.07,78.4ZM223.63,61.17c-.64-1-1-.12-1.38.25-5.41,5.45-6.79,13.85-1.36,20.84.93,1.2,1.71,1.83,3,.6a1.94,1.94,0,0,1,1.57-.6c.47.19.74-.1,1-.41q8.66-9.8,17.32-19.55c.55-.62.52-1-.07-1.56A14,14,0,0,0,235.92,57C231.14,56.35,227.11,58,223.63,61.17Z"/><path class="cls-4" d="M142.19,118.28c-7.12,6.5-15.34,9.86-25,8a21.22,21.22,0,0,1-17.43-21.83,29.49,29.49,0,0,1,8.85-20.41l.36-.37h0a5.11,5.11,0,0,0,1.11-.43A29.45,29.45,0,0,1,123.41,78c7.12-.88,13.6.65,18.87,5.66,6.88,6.51,8.1,16.49,4.89,25.45-1.14,3.17-3,5.94-4.63,8.84h0ZM118.3,84.71l-.35.37h0c-1.63.39-2.29,1.85-3.17,3-3.88,5.06-3.61,11.49.59,15.74a14.1,14.1,0,0,0,18.72,1.24c1.25-1,2.78-1.69,3.22-3.41h0l.37-.35,0,0,.39-.39c3.91-4.3,5-9.06,2.36-14.42-.28-1-.73-.83-1.34-.27-1.66,1.52-3.35,3-2.79,5.62a4.64,4.64,0,0,1-.32,1.66,8.1,8.1,0,0,1-5.7.81c-5-.84-7.63-5.77-5.43-9.94,2.69.11,4.13-1.83,5.73-3.49.84-.87,0-.67-.5-.69a14.17,14.17,0,0,0-11.41,4.12l-.38.39Z"/><path class="cls-4" d="M366.58,110.15c-6.76,6.18-14.65,9.25-23.78,7.57-12.07-2.22-19.12-13.61-16.28-25.75A28.54,28.54,0,0,1,334,78.2c.11-.12.23-.24.34-.37h0c.73-.09,1.2-.66,1.77-1,5.95-3.73,12.29-5.54,19.39-4.59a20.54,20.54,0,0,1,17.33,19.33,28.81,28.81,0,0,1-3.88,15c-.25.45-.93.84-.39,1.51l-.1.11C367.25,108.26,367.17,109.45,366.58,110.15Zm-5.22-15.08v0l.39-.39c4.11-4.22,5.27-9,2.73-14.47-.26-.82-.63-.6-1.09-.14-.8.83-1.62,1.62-2.43,2.44-.28.28-.67.57-.48,1,.53,1.23-.15,2.36-.23,3.53a7.31,7.31,0,0,1-5,1c-6.32-.81-8.45-6.57-6.4-9.9a9.17,9.17,0,0,0,6-3.46c.68-.9.58-1.18-.54-1.08a14.47,14.47,0,0,0-10.47,3c-.79.65-1.54,1.36-2.3,2a.75.75,0,0,0-.36.78h0a.33.33,0,0,0-.3.39h0c-1.67.32-2.08,1.88-2.83,3-3.19,4.9-2.71,10.67,1.19,14.56,6.65,6.65,15.46,4.8,21.43-1.28.17-.18.18-.52.26-.78v0Z"/><path class="cls-5" d="M332.17,126.63c-.11-.71-.78-.8-1.26-1-10.76-5.38-16.15-15.93-15.24-27.53a33,33,0,0,1,7.95-18.94c1.47-1.74.74-3.27.52-4.82-1.13-8-2.44-16-3.69-23.94-.44-2.83-1-5.65-1.33-8.49-.12-.91-.49-1.14-1.32-1.13-3.18,0-6.35,0-9.52.07.21-3.56.21-3.56,3.62-3.56,3.18,0,6.36,0,9.53,0,.87,0,1.25.25,1.38,1.1,1.75,11.55,3.49,23.1,5.3,34.64a2.84,2.84,0,0,1-.8,2.46,35.48,35.48,0,0,0-8.13,20.7,27.47,27.47,0,0,0,15.19,25.76c1.11.54,2.43,3.89,2,5-.17.48-.53.38-.84.33C334.42,127.07,333.3,126.84,332.17,126.63Z"/><path class="cls-5" d="M92.28,90.6c0-1.2.86-2,1.38-2.9A33.93,33.93,0,0,0,98.5,71.87c.22-7.24-2.75-13.23-7.94-18a31.44,31.44,0,0,0-14.88-8,67.5,67.5,0,0,0-20.94-1c-12.87,1.29-24.66,5.86-36,11.83-.5.27-1.1.4-1.34,1-.94-.87-.7-1.4.36-2,11.58-6.9,23.85-12,37.23-14.07a67.83,67.83,0,0,1,21.47.13,31.61,31.61,0,0,1,21,12.35c5.68,7.49,5.59,15.69,2.36,24.1A37.66,37.66,0,0,1,92.28,90.6Z"/><path class="cls-5" d="M226.09,122.46c0-3.4,0-6.8.07-10.19,0-.87-.29-1.17-1.18-1.27a35.36,35.36,0,0,1-22.35-11.19,31.36,31.36,0,0,1-3.62-5A4.19,4.19,0,0,0,196.79,93q-9.89-3.9-19.73-7.87c-1.77-.7-1.74-.71-.37-2.14.75-.78,1.44-1.62,2.16-2.44.28.8,1.1.79,1.7,1q10,4,20.07,7.94a3.59,3.59,0,0,1,2,1.54c5.59,9.31,14,14.36,24.58,16.17,2.7.46,2.72.38,2.72,3,0,4.21,0,8.42,0,12.63,0,1.3-.32,1.57-1.43.9C227.7,123.33,226.89,122.91,226.09,122.46Z"/><path class="cls-5" d="M405.72,93.3a2.92,2.92,0,0,1-.43.71c-1.06,1-2.18,3-3.06,2.72-1.2-.41-1-2.57-1.27-4-2.32-10.75-4.56-21.51-6.82-32.27-.26-1.23-.62-2.45-.76-3.7a1.7,1.7,0,0,0-1.58-1.7L370,50.81c-.05-4.3,0-4.32,4.13-3.5,7.05,1.38,14.1,2.82,21.16,4.17A1.83,1.83,0,0,1,397,53.1q4,19.17,8.06,38.31A3.24,3.24,0,0,0,405.72,93.3Z"/><path class="cls-5" d="M403.63,145.33c.81-.08.92-.74,1.12-1.34Q415.9,110.4,427,76.83c1.25-3.77,2.47-7.55,3.69-11.32.19-.58.61-1.32-.39-1.52-5.57-1.11-11.05-2.67-16.68-3.53.64-4.31.64-4.33,4.8-3.45,5,1.05,9.9,2.16,14.86,3.22,1.06.22,1.5.47,1.06,1.78Q420.63,103.34,407,144.7C406.42,146.42,406.41,146.42,403.63,145.33Z"/><path class="cls-5" d="M142.54,117.93c1.63-2.9,3.49-5.67,4.63-8.84,3.21-9,2-18.94-4.89-25.45-5.27-5-11.75-6.54-18.87-5.66a29.45,29.45,0,0,0-13.36,5.28,5.11,5.11,0,0,1-1.11.43,29.38,29.38,0,0,1,18.18-9.34c6.78-.89,13,.6,18.17,5.19,5.46,4.84,7.55,11.11,7.07,18.29s-3.44,13.15-8.08,18.45C143.75,116.87,143.12,117.38,142.54,117.93Z"/><path class="cls-5" d="M368.59,108.06c-.54-.67.14-1.06.39-1.51a28.81,28.81,0,0,0,3.88-15,20.54,20.54,0,0,0-17.33-19.33c-7.1-.95-13.44.86-19.39,4.59-.57.36-1,.93-1.77,1,7.15-8.44,20.43-11.81,30-7.64a20.46,20.46,0,0,1,12,21,29.47,29.47,0,0,1-6.64,15.65C369.44,107.3,369.16,107.83,368.59,108.06Z"/><path class="cls-4" d="M249.31,25.39l-19.5,9.68c-.61.3-1.26.82-1.68-.21-.35-.87-1.75-1.42-.62-2.76,3.75-4.39,7.4-8.85,11.1-13.28,1-1.24,2.09-2.45,3.14-3.68A85.14,85.14,0,0,1,249.31,25.39Z"/><path class="cls-5" d="M257.32,60c-.52-2.13-2.33-3.26-3.83-4.47a28.74,28.74,0,0,0-20.43-6.45A36,36,0,0,0,214.71,55a2.35,2.35,0,0,1-1.4.61,30.38,30.38,0,0,1,15.49-8.86c10-2.54,19.42-1.61,27.88,4.82a35.12,35.12,0,0,1,3.78,3.54c.6.62.67,1,0,1.68C259.36,57.84,258.36,59,257.32,60Z"/><path class="cls-5" d="M82.91,144c-.48-3.6-1.71-7-2.62-10.49Q77,120.76,73.5,108.07a1.74,1.74,0,0,1,.93-2.37c.9-.49,1.73-1.11,2.59-1.68q2.94,11.07,5.87,22.12c1.32,5,2.54,10,3.93,15,.34,1.23.18,1.8-1.09,2.05C84.78,143.38,83.85,143.7,82.91,144Z"/><path class="cls-5" d="M303.79,66c-.11,2.35-2.21,3.23-3.56,4.63-.42.43-.52-.32-.58-.68l-2.43-13.36c-.63-3.44-1.3-6.87-1.89-10.31-.18-1-.61-1.41-1.7-1.4-4.91.07-9.82,0-14.73,0,.12-.91.25-1.82.34-2.73.06-.7.5-.8,1.08-.8,5.83,0,11.67,0,17.5,0,1.05,0,1,.7,1.12,1.37Q301,54.07,303.1,65.35C303.16,65.7,302.92,66.46,303.79,66Z"/><path class="cls-5" d="M167.86,62.84l-3.58,4.74c-.56-.27-.52-.69-.54-1.09-.24-5-.31-10.12-.79-15.16-.28-2.92,0-5.86-.55-8.77-.19-1.06-.51-1-1.31-.79-6.18,1.87-12.34,3.74-18.54,5.52-1.41.4-.82,1.43-1.06,2.21a2.15,2.15,0,0,1-.13-.32c-.55-3.9-.54-3.89,3.22-5l19.5-5.81c2-.6,1.93-.58,2,1.4q.65,11.12,1.35,22.23C167.5,62.31,167.4,62.7,167.86,62.84Z"/><path class="cls-5" d="M199.82,58.47c-.13-1.11-1.07-1.6-1.76-2.26-3.66-3.48-7.3-7-11.08-10.34-1.43-1.27-2.62-2.87-4.43-3.7.85-1.22,1.74-2.42,2.54-3.67.43-.67.73-.7,1.3-.15q8.22,7.86,16.49,15.69c.57.54.49.89,0,1.38C201.82,56.41,200.83,57.45,199.82,58.47Z"/><path class="cls-5" d="M381.14,129.7c1-5.75,2.09-11.49,3.11-17.23,1.06-5.92,2-11.85,3.18-17.75.35-1.77,2.13-2.65,3.37-3.79.44-.41.33.4.37.71-1.1,3.32-1.4,6.8-2,10.21-1.62,8.8-3.11,17.62-4.67,26.43C384.07,130.53,384,130.53,381.14,129.7Z"/><path class="cls-5" d="M166.81,126.22c0-7.92.2-15.85-.08-23.77-.12-3.32.93-5.6,3.52-7.39.06,9.85.11,19.7.2,29.55,0,1-.29,1.35-1.24,1.37S167.61,126.14,166.81,126.22Z"/><path class="cls-5" d="M263.89,88.86l-8-7.29-4.56-4.19c1-1,1.93-1.95,2.83-3,.55-.64.9-.42,1.39,0,3.8,3.42,7.61,6.85,11.43,10.25.54.47.71.81.1,1.34C266,86.94,265,87.91,263.89,88.86Z"/><path class="cls-2" d="M95,116.57c-2.19.09-3.8,1.54-5.65,2.44-1.27-3.51-2-7.19-2.93-10.78a1.42,1.42,0,0,1,.68-1.61A48.57,48.57,0,0,0,93,101.53,35.27,35.27,0,0,0,95,116.57Z"/><path class="cls-5" d="M283,111.39c.79,0,1.3-.07,1.46-1.16,1.08-7.34,2.28-14.67,3.42-22a2.15,2.15,0,0,1,.6-1.2l2.86-3c.53-.56.64-.16.71.32-1.22.8-.81,2.19-1,3.26-1.29,7.69-2.44,15.39-3.57,23.1-.18,1.22-.72,1.61-1.82,1.24C284.78,111.66,283.8,111.9,283,111.39Z"/><path class="cls-5" d="M249.31,25.39a85.14,85.14,0,0,0-7.56-10.25c.93-1.16,1.89-2.29,2.78-3.48.54-.73.84-.46,1.25.1q3.85,5.26,7.75,10.51c.51.67.31.95-.36,1.25C251.86,24.11,250.59,24.76,249.31,25.39Z"/><path class="cls-5" d="M301.76,105.15c.81-.07.75-.82.94-1.29,1.32-3.31,2.68-6.61,3.85-10,.7-2,2.26-3.31,3.72-4.65.84-.78.82.11.79.69-1.07-.87-.85.49-.93.69-1.8,4.47-3.53,9-5.27,13.46l-1.6,4.1A11.68,11.68,0,0,1,301.76,105.15Z"/><path class="cls-3" d="M267.85,61.06a.72.72,0,0,1,.23.84c-.58,3.61-1.17,7.21-1.78,11-1.92-1.14-3.17-2.83-4.8-4.07-.55-.41-.18-.84.12-1.16C263.69,65.43,265.78,63.25,267.85,61.06Z"/><path class="cls-5" d="M249,79.16c.06.46-.24.74-.51,1-3.08,3.4-10.83,6.34-15.32,5.7a33.31,33.31,0,0,1,3.37-3.7A19.6,19.6,0,0,0,247.32,80Z"/><path class="cls-3" d="M365.17,63.25l-5.72-1.42c2.27-1.9,4.63-2.51,7.34-1.39a12.69,12.69,0,0,0,2.17.49C368.08,62.32,366.39,62.39,365.17,63.25Z"/><path class="cls-2" d="M365.17,63.25c1.22-.86,2.91-.93,3.79-2.32.92,1.33,0,2.58-.09,4.05Z"/><path class="cls-5" d="M366.58,110.15c.59-.7.67-1.89,1.91-2A5.34,5.34,0,0,1,366.58,110.15Z"/><path class="cls-5" d="M91.21,91.93A1,1,0,0,1,92,91,1.31,1.31,0,0,1,91.21,91.93Z"/><path class="cls-5" d="M250.07,78.4a1,1,0,0,1-1.06.76A1.71,1.71,0,0,1,250.07,78.4Z"/><path class="cls-5" d="M334.35,77.83c-.11.13-.23.25-.34.37C334.12,78.08,334.24,78,334.35,77.83Z"/><path class="cls-5" d="M92,91l.34-.38C92.28,90.81,92.19,91,92,91Z"/><path class="cls-5" d="M108.94,83.68l-.36.37Z"/><path class="cls-5" d="M213.31,55.63l-.37.37Z"/><path class="cls-5" d="M90.85,92.33l.34-.38Z"/><path class="cls-5" d="M142.19,118.28l.36-.35Z"/><path class="cls-1" d="M65.92,66c4-1.81,8.21-2.78,12.6-1.6,8.2,2.2,10.59,9.29,8.38,16.94-1,3.55-3.37,6.25-6.08,8.66-1.94,1.72-4.13,3.13-6.21,4.68-.75.31-.87-.28-1-.76-2.7-8.84-5.37-17.7-8.11-26.53A1,1,0,0,1,65.92,66Zm7.42,6.24c.41,3.14,1.71,6,2.55,9,.36,1.28.8,2.54,1.33,4.22.6-1.09,1.51-1.31,1.6-2.24.52-.75,1.09-1.47,1.54-2.25a8.22,8.22,0,0,0,.55-7.9c-1.17-2.46-3.63-3-6.14-3.14C72.54,69.88,72.44,70.08,73.34,72.24Z"/><path class="cls-5" d="M65.92,66a1,1,0,0,0-.44,1.39c2.74,8.83,5.41,17.69,8.11,26.53.15.48.27,1.07,1,.76a.92.92,0,0,1-.14.3c-2.65,2.75-3.1,2.65-4.18-.89L63.11,70.5a4.76,4.76,0,0,1,1.78-4.8C65.34,65.44,65.5,66.16,65.92,66Z"/><path class="cls-1" d="M223.63,61.17c3.48-3.2,7.51-4.82,12.29-4.18a14,14,0,0,1,7.81,3.75c.59.55.62.94.07,1.56q-8.69,9.75-17.32,19.55c-.27.31-.54.6-1,.41-3.77-3.21-5.83-7.19-5.59-12.22A15.45,15.45,0,0,1,223.63,61.17Zm3.93,3.56a.32.32,0,0,0-.21.15,8.68,8.68,0,0,0-1.85,9.53c.45.86.76.57,1.21,0,1.48-1.7,3-3.34,4.43-5.08,1.3-1.58,3-2.88,3.88-4.76.57-.69,1.15-1.37,1.72-2.07-2.37-1.43-7.59-.18-9.13,2.16Z"/><path class="cls-5" d="M223.63,61.17A15.45,15.45,0,0,0,219.88,70c-.24,5,1.82,9,5.59,12.22a1.94,1.94,0,0,0-1.57.6c-1.3,1.23-2.08.6-3-.6-5.43-7-4-15.39,1.36-20.84C222.62,61.05,223,60.19,223.63,61.17Z"/><path class="cls-1" d="M124.85,84.39c-2.2,4.17.46,9.1,5.43,9.94a8.1,8.1,0,0,0,5.7-.81,6.9,6.9,0,0,0,4.12-6c0-.36-.17-.81.33-1,2.63,5.36,1.55,10.12-2.36,14.42l-.39.39,0,0c-.22,0-.37.1-.37.35h0l-1.63.91c-7.69,4.45-17.5.65-19.65-7.63A12.08,12.08,0,0,1,118,85.07h0c.24,0,.33-.16.35-.37h0l.38-.39a14.17,14.17,0,0,1,11.41-4.12c-.32.57-1,.44-1.46.68A6.88,6.88,0,0,0,124.85,84.39Z"/><path class="cls-5" d="M118,85.07a12.08,12.08,0,0,0-1.92,9.85c2.15,8.28,12,12.08,19.65,7.63l1.63-.91c-.44,1.72-2,2.46-3.22,3.41a14.1,14.1,0,0,1-18.72-1.24c-4.2-4.25-4.47-10.68-.59-15.74C115.68,86.92,116.34,85.46,118,85.07Z"/><path class="cls-5" d="M140.43,86.51c-.5.22-.3.67-.33,1a6.9,6.9,0,0,1-4.12,6,4.64,4.64,0,0,0,.32-1.66c-.56-2.65,1.13-4.1,2.79-5.62C139.7,85.68,140.15,85.55,140.43,86.51Z"/><path class="cls-5" d="M124.85,84.39a6.88,6.88,0,0,1,3.77-3.5c.48-.24,1.14-.11,1.46-.68.46,0,1.34-.18.5.69C129,82.56,127.54,84.5,124.85,84.39Z"/><path class="cls-5" d="M137.68,101.32l.39-.39Z"/><path class="cls-5" d="M118.67,84.33l-.38.39Z"/><path class="cls-5" d="M137.33,101.65c0-.25.15-.33.37-.35Z"/><path class="cls-5" d="M118.3,84.71c0,.21-.11.36-.35.37Z"/><path class="cls-1" d="M341.6,78.72c.76-.68,1.51-1.39,2.3-2a14.47,14.47,0,0,1,10.47-3c-.33.56-1,.55-1.46.78-1.76.81-3.34,1.81-4,3.76-2.05,3.33.08,9.09,6.4,9.9a7.31,7.31,0,0,0,5-1,6.41,6.41,0,0,0,3.91-5.79c0-.37-.2-.83.32-1.06,2.54,5.48,1.38,10.25-2.73,14.47l-.39.39v0c-.22,0-.38.09-.38.35v0c-.56.28-1.12.56-1.67.85-7.53,4.07-16.95.39-19.27-7.49-.91-3.1-.28-6,.89-8.88h0c.27,0,.3-.18.3-.39h0A.61.61,0,0,0,341.6,78.72Z"/><path class="cls-5" d="M340.94,79.88c-1.17,2.87-1.8,5.78-.89,8.88,2.32,7.88,11.74,11.56,19.27,7.49.55-.29,1.11-.57,1.67-.85-.08.26-.09.6-.26.78-6,6.08-14.78,7.93-21.43,1.28-3.9-3.89-4.38-9.66-1.19-14.56C338.86,81.76,339.27,80.2,340.94,79.88Z"/><path class="cls-5" d="M364.47,80.23c-.52.23-.3.69-.32,1.06a6.41,6.41,0,0,1-3.91,5.79c.08-1.17.76-2.3.23-3.53-.19-.45.2-.74.48-1,.81-.82,1.63-1.61,2.43-2.44C363.84,79.63,364.21,79.41,364.47,80.23Z"/><path class="cls-5" d="M348.87,78.19c.7-2,2.28-3,4-3.76.5-.23,1.13-.22,1.46-.78,1.12-.1,1.22.18.54,1.08A9.17,9.17,0,0,1,348.87,78.19Z"/><path class="cls-5" d="M341.6,78.72a.61.61,0,0,1-.36.78A.75.75,0,0,1,341.6,78.72Z"/><path class="cls-5" d="M361.35,95.09l.39-.39Z"/><path class="cls-5" d="M341.23,79.5c0,.21,0,.39-.3.39A.33.33,0,0,1,341.23,79.5Z"/><path class="cls-5" d="M361,95.42c0-.26.16-.34.38-.35Z"/><path class="cls-5" d="M73.34,72.24c-.9-2.16-.8-2.36,1.43-2.27,2.51.1,5,.68,6.14,3.14a8.22,8.22,0,0,1-.55,7.9c-.45.78-1,1.5-1.54,2.25-.49-.6.08-1.12.16-1.68C79.76,76.19,78.53,72.88,73.34,72.24Z"/><path class="cls-5" d="M235,64.62a13.52,13.52,0,0,0-7.41.09c1.54-2.34,6.76-3.59,9.13-2.16C236.17,63.25,235.59,63.93,235,64.62Z"/><path class="cls-5" d="M227.56,64.73l-.21.15A.32.32,0,0,1,227.56,64.73Z"/></g></g></svg>