<svg xmlns="http://www.w3.org/2000/svg" viewBox="0 0 369.26 369.39"><defs><style>.cls-1{fill:#060405;}.cls-2{fill:#e3091e;}.cls-3{fill:#fff;}</style></defs><g id="Layer_2" data-name="Layer 2"><g id="Layer_1-2" data-name="Layer 1"><path class="cls-1" d="M184.58,369.39C82.54,369.32-.09,286.45,0,184.28.09,82.65,82.75.14,184.6,0S369.38,82.79,369.26,184.7C369.13,286.84,286.53,369.45,184.58,369.39ZM299.42,170.94c15,0,30.05,0,45.08,0,1.71,0,2.59-.18,2.31-2.28a213.56,213.56,0,0,0-4.08-23.15C322.42,63.4,241.27,7.89,153.45,24.93c-46,8.92-81.6,34-106.82,73.46a157.47,157.47,0,0,0-24,69.61c-.28,2.72.66,3,2.93,3q44-.09,88.05,0c2.82,0,4-.62,4.72-3.55,8.86-34.54,43.39-57,78.11-50.25,28.51,5.58,46.72,23,54.66,51,.66,2.35,1.55,2.82,3.71,2.81C269.71,170.91,284.57,171,299.42,170.94ZM70.26,198.48H57q-16.18,0-32.35,0c-1.44,0-2.36-.15-2.13,2a165.24,165.24,0,0,0,5.23,28,162.93,162.93,0,0,0,192.86,115c68.16-15.27,119.62-73.5,126.21-142.74.18-1.91-.29-2.35-2.18-2.34q-45.21.09-90.42,0c-2,0-2.57.65-3,2.56-8.69,35.2-43.08,57.94-78.66,51-28.32-5.51-46.48-22.94-54.28-50.85-.56-2-1.19-2.77-3.44-2.75C100,198.54,85.11,198.48,70.26,198.48Zm162.29-13.82a47.88,47.88,0,1,0-47.93,47.94A48,48,0,0,0,232.55,184.66Z"/><path class="cls-2" d="M299.42,170.94c-14.85,0-29.71,0-44.56.05-2.16,0-3.05-.46-3.71-2.81-7.94-28-26.15-45.39-54.66-51-34.72-6.79-69.25,15.71-78.11,50.25-.75,2.93-1.9,3.56-4.72,3.55q-44-.16-88,0c-2.27,0-3.21-.26-2.93-3a157.47,157.47,0,0,1,24-69.61c25.22-39.48,60.84-64.54,106.82-73.46,87.82-17,169,38.47,189.28,120.61a213.56,213.56,0,0,1,4.08,23.15c.28,2.1-.6,2.29-2.31,2.28C329.47,170.92,314.44,170.94,299.42,170.94Z"/><path class="cls-3" d="M70.26,198.48c14.85,0,29.7.06,44.55-.07,2.25,0,2.88.74,3.44,2.75,7.8,27.91,26,45.34,54.28,50.85,35.58,6.92,70-15.82,78.66-51,.47-1.91,1-2.56,3-2.56q45.21.1,90.42,0c1.89,0,2.36.43,2.18,2.34C340.24,270,288.78,328.25,220.62,343.52a162.93,162.93,0,0,1-192.86-115,165.24,165.24,0,0,1-5.23-28c-.23-2.18.69-2,2.13-2q16.17,0,32.35,0Z"/><path class="cls-3" d="M232.55,184.66a47.88,47.88,0,1,1-48-47.94A47.93,47.93,0,0,1,232.55,184.66Zm-71.5.06a23.67,23.67,0,0,0,47.33,0,23.67,23.67,0,1,0-47.33,0Z"/><path class="cls-1" d="M161.05,184.72a23.67,23.67,0,1,1,23.73,23.56A23.62,23.62,0,0,1,161.05,184.72Z"/></g></g></svg>